<?xml version="1.0" encoding="UTF-8" standalone="no"?>
<!-- Created with Inkscape (http://www.inkscape.org/) -->

<svg
     xmlns:dc="http://purl.org/dc/elements/1.1/"
     xmlns:cc="http://creativecommons.org/ns#"
     xmlns:rdf="http://www.w3.org/1999/02/22-rdf-syntax-ns#"
     xmlns:svg="http://www.w3.org/2000/svg"
     xmlns="http://www.w3.org/2000/svg"
     xmlns:xlink="http://www.w3.org/1999/xlink"
     xmlns:sodipodi="http://sodipodi.sourceforge.net/DTD/sodipodi-0.dtd"
     xmlns:inkscape="http://www.inkscape.org/namespaces/inkscape"
     width="1088.3334"
     height="400"
     id="svg3467"
     version="1.1"
     inkscape:version="0.48.5 r10040"
     sodipodi:docname="New document 2">
    <defs
         id="defs3469">
        <linearGradient
             inkscape:collect="always"
             id="linearGradient4787">
            <stop
                 style="stop-color:#000000;stop-opacity:1;"
                 offset="0"
                 id="stop4789" />
            <stop
                 style="stop-color:#000000;stop-opacity:0;"
                 offset="1"
                 id="stop4791" />
        </linearGradient>
        <radialGradient
             inkscape:collect="always"
             xlink:href="#linearGradient4787"
             id="radialGradient4793"
             cx="355.83331"
             cy="343.1955"
             fx="355.83331"
             fy="343.1955"
             r="401.66666"
             gradientTransform="matrix(1.1607884,0,0,0.46680495,-58.463865,242.99014)"
             gradientUnits="userSpaceOnUse" />
        <radialGradient
             inkscape:collect="always"
             xlink:href="#linearGradient4787"
             id="radialGradient4887"
             gradientUnits="userSpaceOnUse"
             gradientTransform="matrix(1.1607884,0,0,0.46680495,-58.463865,242.99014)"
             cx="355.83331"
             cy="343.1955"
             fx="355.83331"
             fy="343.1955"
             r="401.66666" />
    </defs>
    <sodipodi:namedview
         id="base"
         pagecolor="#ffffff"
         bordercolor="#666666"
         borderopacity="1.0"
         inkscape:pageopacity="0.0"
         inkscape:pageshadow="2"
         inkscape:zoom="1.2"
         inkscape:cx="563.3313"
         inkscape:cy="191.66663"
         inkscape:document-units="px"
         inkscape:current-layer="layer1"
         showgrid="false"
         fit-margin-top="0"
         fit-margin-left="0"
         fit-margin-right="0"
         fit-margin-bottom="0" />
    <metadata
         id="metadata3472">
        <rdf:RDF>
            <cc:Work
                 rdf:about="">
                <dc:format>image/svg+xml</dc:format>
                <dc:type
                     rdf:resource="http://purl.org/dc/dcmitype/StillImage" />
                <dc:title></dc:title>
            </cc:Work>
        </rdf:RDF>
    </metadata>
    <g
         inkscape:label="Layer 1"
         inkscape:groupmode="layer"
         id="layer1"
         transform="translate(190,-127.37613)">
        <g
             id="g4795">
            <rect
                 ry="0"
                 y="215.69551"
                 x="-111.66667"
                 height="374.99997"
                 width="932.49994"
                 id="rect4785"
                 style="opacity:0.33333333;fill:url(#radialGradient4887);fill-opacity:1;stroke:none" />
            <g
                 id="g4729">
                <g
                     id="g4643"
                     transform="translate(-314.16667,-376.16667)">
                    <polygon
                         transform="matrix(4.8569087,0,0,4.8569087,15.496109,410.86903)"
                         style="fill:#4c3325;fill-rule:evenodd"
                         points="70.867,19.412 75.316,72.348 51.974,101.992 45.604,79.971 44.437,41.01 68.362,19.412 "
                         id="polygon58" />
                    <path
                         style="fill:#63432e;fill-rule:evenodd"
                         d="M 172.03429,905.20031 179.59164,872.97958 C 185.10423,846.92712 189.03833,822.35602 191.40364,799.27599 195.18232,763.62143 199.04356,701.91441 202.97766,614.15978 L 245.49018,618.27358 C 248.95315,708.77236 251.70702,770.47453 253.75663,803.38494 256.11709,839.49605 259.19151,867.48642 262.97019,887.37546 L 267.92909,906.22998 172.03429,905.20031 z"
                         id="path60"
                         inkscape:connector-curvature="0" />
                    <path
                         style="fill:#63432e;fill-rule:evenodd"
                         d="M 172.03429,905.20031 179.59164,872.97958 C 185.10423,846.92712 189.03833,822.35602 191.40364,799.27599 195.18232,763.62143 199.04356,701.91441 202.97766,614.15978 L 245.49018,618.27358 C 248.95315,708.77236 251.70702,770.47453 253.75663,803.38494 256.11709,839.49605 259.19151,867.48642 262.97019,887.37546 L 267.92909,906.22998 172.03429,905.20031 z"
                         id="path62"
                         inkscape:connector-curvature="0" />
                    <path
                         style="fill:#63432e;fill-rule:evenodd"
                         d="M 172.03429,905.20031 179.59164,872.97958 C 185.10423,846.92712 189.03833,822.35602 191.40364,799.27599 195.18232,763.62143 199.04356,701.91441 202.97766,614.15978 L 245.49018,618.27358 C 248.95315,708.77236 251.70702,770.47453 253.75663,803.38494 256.11709,839.49605 259.19151,867.48642 262.97019,887.37546 L 267.92909,906.22998 172.03429,905.20031 z"
                         id="path64"
                         inkscape:connector-curvature="0" />
                    <path
                         style="fill:#3f2a20;fill-rule:evenodd"
                         d="M 297.68737,647.0702 260.84286,661.47093 C 259.1138,730.03105 259.1138,775.96769 260.84286,799.28085 L 267.92909,906.23483 C 261.47426,864.18372 257.85101,839.50091 257.06419,832.18641 255.64597,821.21465 254.62602,804.7643 253.99462,782.82564 L 249.74483,647.0702 H 297.68737 z"
                         id="path66"
                         inkscape:connector-curvature="0" />
                    <path
                         style="fill:#3f2a20;fill-rule:evenodd"
                         d="M 265.80177,578.85493 274.30136,570.96731 C 283.28178,637.70122 286.97789,676.09994 285.40425,686.15374 283.51491,697.35377 282.01898,722.14829 280.91647,760.54215 279.81395,801.21876 280.20736,827.27121 282.09669,838.69952 285.40425,856.75751 287.76471,870.35685 289.17807,879.49269 L 284.69028,884.981 C 282.16955,875.15062 280.59591,868.29266 279.96451,864.41199 278.07517,855.49471 276.73467,845.89746 275.95271,835.61538 274.68991,822.36088 275.08332,795.16219 277.13293,754.02418 279.02227,712.2062 279.65367,686.95027 279.02227,678.26612 277.92461,663.64197 273.51939,630.50328 265.80177,578.85493 z"
                         id="path68"
                         inkscape:connector-curvature="0" />
                    <path
                         style="fill:#3f2a20;fill-rule:evenodd"
                         d="M 286.82247,559.65557 295.08892,552.11279 C 299.1833,625.01983 300.60152,669.69853 299.34358,686.15374 295.08892,738.94348 296.11373,778.48357 302.40829,804.7643 304.92902,814.8181 307.76546,830.47677 310.90788,851.73061 L 305.94897,857.90374 C 303.27282,831.85128 299.96526,813.10847 296.03116,801.68502 290.36315,784.99668 288.23583,762.26149 289.65404,733.46488 290.28544,717.92763 291.31025,697.00893 292.72361,670.73305 292.25735,653.12676 290.2903,616.10255 286.82247,559.65557 z"
                         id="path70"
                         inkscape:connector-curvature="0" />
                    <path
                         style="fill:#3f2a20;fill-rule:evenodd"
                         d="M 309.97049,653.58817 C 308.55228,624.79156 309.57223,585.59631 313.04006,536.00728 L 322.4916,527.43484 C 317.92611,600.56531 316.19705,645.244 317.29471,661.47093 317.45499,664.4385 319.49975,686.15374 323.43384,726.60207 326.43056,758.14284 327.92163,779.05183 327.92163,789.33876 327.92163,795.05048 327.36794,809.33465 326.26542,832.18641 L 321.78249,838.0147 C 321.78249,816.76086 321.38423,799.05258 320.60227,784.88012 319.97087,775.05945 317.99896,753.34421 314.69626,719.74897 312.33581,693.91993 310.75731,671.86471 309.97049,653.58817 z"
                         id="path72"
                         inkscape:connector-curvature="0" />
                    <path
                         style="fill:#3f2a20;fill-rule:evenodd"
                         d="M 351.30764,567.19834 C 348.78205,589.14186 346.50416,612.45015 344.4594,637.13296 340.52045,686.95513 339.65592,719.17586 341.86095,733.80001 345.63963,760.77042 348.54892,783.28219 350.59853,801.33047 L 346.34388,806.47393 344.92566,797.22152 C 339.73363,770.25111 337.05747,756.54006 336.89719,756.08351 334.85243,742.14418 334.29875,726.48551 335.24584,709.12206 336.81948,682.37992 338.63111,638.73088 340.68072,578.1701 L 351.30764,567.19834 z"
                         id="path74"
                         inkscape:connector-curvature="0" />
                    <path
                         style="fill:#3f2a20;fill-rule:evenodd"
                         d="M 363.11479,616.56395 368.7828,613.47496 370.20101,630.27015 C 366.89346,676.43506 365.55295,706.83445 366.18435,721.45375 366.66033,733.56688 367.04888,742.70758 367.36458,748.87585 367.99598,759.3862 369.02079,768.53176 370.43415,776.29796 L 365.23725,782.81593 364.05703,776.98764 C 361.53629,765.55448 360.51634,751.96485 360.98746,736.19447 361.77428,714.25581 362.08998,702.13782 361.93456,699.85993 361.30316,684.55581 361.69657,656.78887 363.11479,616.56395 z"
                         id="path76"
                         inkscape:connector-curvature="0" />
                    <path
                         style="fill:#3f2a20;fill-rule:evenodd"
                         d="M 319.42204,840.75885 314.22514,847.27196 C 314.85654,842.24506 315.17224,835.84366 315.17224,828.0726 315.17224,818.93676 312.02011,798.36775 305.72555,766.37044 302.7337,751.97456 303.0494,727.7483 306.67265,693.69652 306.04125,710.15172 306.43952,724.09105 307.85288,735.5145 310.37362,755.40354 313.20519,771.85389 316.35247,784.88012 319.02377,796.5367 320.04858,815.15808 319.42204,840.75885 z"
                         id="path78"
                         inkscape:connector-curvature="0" />
                    <path
                         style="fill:#3f2a20;fill-rule:evenodd"
                         d="M 268.40021,656.66745 C 269.81843,675.18198 270.13413,689.57786 269.34731,699.86479 L 267.46283,732.43036 259.90062,707.74755 C 257.69559,699.9765 257.22447,689.9227 258.48241,677.58129 259.1138,671.40816 259.90062,666.04128 260.84286,661.47093 L 268.40021,656.66745 z"
                         id="path80"
                         inkscape:connector-curvature="0" />
                    <polygon
                         transform="matrix(4.8569087,0,0,4.8569087,15.496109,410.86903)"
                         style="fill:#3f2a20;fill-rule:evenodd"
                         points="53.19,100.156 52.509,90.628 54.697,98.604 "
                         id="polygon82" />
                    <polygon
                         transform="matrix(4.8569087,0,0,4.8569087,15.496109,410.86903)"
                         style="fill:#3f2a20;fill-rule:evenodd"
                         points="57.761,94.439 56.011,82.088 59.803,92.04 "
                         id="polygon84" />
                    <path
                         style="fill:#754e34;fill-rule:evenodd"
                         d="M 251.8673,905.88999 C 258.16671,900.86309 260.84286,895.49135 259.89577,889.77963 258.47755,881.55688 254.22775,845.56233 247.14152,781.79598 243.20743,750.72148 243.05201,707.41243 246.6704,651.87853 L 250.21109,731.41041 C 250.68221,750.37664 251.39132,765.1125 252.33842,775.62771 L 253.75663,803.39465 C 256.11709,839.50577 259.19151,867.49613 262.97019,887.38517 L 267.92909,906.23969 251.8673,905.88999 z"
                         id="path86"
                         inkscape:connector-curvature="0" />
                    <path
                         style="fill:#754e34;fill-rule:evenodd"
                         d="M 210.06388,838.69952 C 205.02727,858.35543 202.19084,873.32442 201.56429,883.6065 201.08832,891.60582 202.35111,898.92033 205.34297,905.55001 H 194.00209 L 194.94919,886.69549 C 195.736,877.32166 200.77262,861.323 210.06388,838.69952 z"
                         id="path88"
                         inkscape:connector-curvature="0" />
                    <path
                         style="fill:#754e34;fill-rule:evenodd"
                         d="M 224.94545,635.07363 232.26481,644.32604 V 661.12609 C 232.10939,666.38126 231.39543,674.72058 230.13749,686.14888 229.19039,694.37163 229.11268,719.97239 229.90436,762.9366 L 231.32257,824.98361 229.67122,801.67531 C 228.56871,784.76355 228.01502,772.42215 228.01502,764.65109 228.01016,752.31455 226.98535,709.12206 224.94545,635.07363 z"
                         id="path90"
                         inkscape:connector-curvature="0" />
                    <path
                         inkscape:connector-curvature="0"
                         id="path94"
                         d="M 217.38325,615.53429 224.94545,616.21911 228.95726,773.90836 C 229.58866,787.61941 231.1623,807.84844 233.68303,834.58572 236.35919,864.5237 238.87507,888.29341 241.24038,905.88999 H 233.68303 C 232.73593,869.09405 230.14234,831.27331 225.88769,792.4229 223.36696,769.34287 220.53538,710.37514 217.38325,615.53429 z"
                         style="fill:#543a2d;fill-rule:evenodd" />
                    <path
                         inkscape:connector-curvature="0"
                         id="path96"
                         d="M 233.91616,616.90394 241.7115,617.92874 C 238.71964,667.52264 238.01054,706.71789 239.58417,735.50964 240.68669,752.19798 244.30995,779.39181 250.44908,817.10085 256.43279,852.52228 259.58007,876.74854 259.89577,889.77477 L 260.13375,905.88514 H 254.93686 L 254.70373,895.9479 C 253.91205,877.42851 250.37137,846.81056 244.07681,804.06976 237.46171,758.82766 233.92102,733.3386 233.4499,727.62688 232.1871,711.86621 232.34252,674.95371 233.91616,616.90394 z"
                         style="fill:#543a2d;fill-rule:evenodd" />
                    <path
                         inkscape:connector-curvature="0"
                         id="path98"
                         d="M 201.32631,648.4447 201.55944,640.2171 201.79743,639.52742 203.21564,630.61499 C 209.19935,709.69032 212.19121,766.25387 212.19121,800.30566 212.19121,814.93467 209.90846,832.18641 205.34297,852.07059 200.6172,871.95477 198.25674,889.66306 198.25674,905.20031 V 905.54515 L 190.4614,905.20031 C 192.0399,888.97338 192.98699,879.72097 193.29784,877.43337 194.24008,871.04167 196.92109,858.69541 201.32631,840.41401 204.47358,827.15951 205.88694,815.26979 205.5761,804.75944 L 199.90809,675.17712 200.85519,656.66259 V 655.29294 L 201.32631,648.4447 z"
                         style="fill:#543a2d;fill-rule:evenodd" />
                    <path
                         inkscape:connector-curvature="0"
                         id="path100"
                         d="M 227.06792,905.55001 H 207.70343 L 215.26078,871.26995 C 217.30554,859.83679 218.72375,835.15883 219.51057,797.22152 221.71561,818.70363 222.81813,833.55605 222.81813,841.78366 222.66271,851.61404 222.66271,859.72508 222.81813,866.12648 223.12897,877.77821 224.15378,888.1817 225.88284,897.32241 L 227.06792,905.55001 z"
                         style="fill:#543a2d;fill-rule:evenodd" />
                    <polygon
                         transform="matrix(4.8569087,0,0,4.8569087,15.496109,410.86903)"
                         id="polygon102"
                         points="34.614,97.191 35.343,101.639 32.571,101.779 "
                         style="fill:#543a2d;fill-rule:evenodd" />
                    <polygon
                         transform="matrix(4.8569087,0,0,4.8569087,15.496109,410.86903)"
                         id="polygon104"
                         points="40.498,46.162 40.692,58.585 38.649,45.244 "
                         style="fill:#543a2d;fill-rule:evenodd" />
                    <polygon
                         transform="matrix(4.8569087,0,0,4.8569087,15.496109,410.86903)"
                         id="polygon106"
                         points="48.57,47.292 48.813,55.408 37.968,54.42 38.601,45.809 "
                         style="fill:#301f19;fill-rule:evenodd" />
                    <polygon
                         transform="matrix(4.8569087,0,0,4.8569087,15.496109,410.86903)"
                         style="fill:#281a16;fill-rule:evenodd"
                         points="48.813,55.408 48.57,47.15 63.451,48.421 63.451,49.974 "
                         id="polygon108" />
                    <path
                         style="fill:#754e34;fill-rule:evenodd"
                         d="M 180.06762,888.40512 173.6905,905.20031 175.81782,890.12447 C 183.21489,858.35543 188.41664,828.0726 191.40364,799.28085 193.45326,780.08149 195.42031,753.80076 197.30964,720.43865 L 198.25674,713.92068 C 199.20384,725.57726 199.51468,740.08971 199.20384,757.45801 198.72786,792.4229 195.58058,824.64848 189.75715,854.12992 187.8581,863.72231 184.63311,875.15062 180.06762,888.40512 z"
                         id="path110"
                         inkscape:connector-curvature="0" />
                </g>
                <g
                     transform="matrix(-1,0,0,1,1021.1667,-376.16667)"
                     id="use4673">
                    <polygon
                         id="polygon4677"
                         points="75.316,72.348 51.974,101.992 45.604,79.971 44.437,41.01 68.362,19.412 70.867,19.412 "
                         style="fill:#4c3325;fill-rule:evenodd"
                         transform="matrix(4.8569087,0,0,4.8569087,15.496109,410.86903)" />
                    <path
                         inkscape:connector-curvature="0"
                         id="path4679"
                         d="M 172.03429,905.20031 179.59164,872.97958 C 185.10423,846.92712 189.03833,822.35602 191.40364,799.27599 195.18232,763.62143 199.04356,701.91441 202.97766,614.15978 L 245.49018,618.27358 C 248.95315,708.77236 251.70702,770.47453 253.75663,803.38494 256.11709,839.49605 259.19151,867.48642 262.97019,887.37546 L 267.92909,906.22998 172.03429,905.20031 z"
                         style="fill:#63432e;fill-rule:evenodd" />
                    <path
                         inkscape:connector-curvature="0"
                         id="path4681"
                         d="M 172.03429,905.20031 179.59164,872.97958 C 185.10423,846.92712 189.03833,822.35602 191.40364,799.27599 195.18232,763.62143 199.04356,701.91441 202.97766,614.15978 L 245.49018,618.27358 C 248.95315,708.77236 251.70702,770.47453 253.75663,803.38494 256.11709,839.49605 259.19151,867.48642 262.97019,887.37546 L 267.92909,906.22998 172.03429,905.20031 z"
                         style="fill:#63432e;fill-rule:evenodd" />
                    <path
                         inkscape:connector-curvature="0"
                         id="path4683"
                         d="M 172.03429,905.20031 179.59164,872.97958 C 185.10423,846.92712 189.03833,822.35602 191.40364,799.27599 195.18232,763.62143 199.04356,701.91441 202.97766,614.15978 L 245.49018,618.27358 C 248.95315,708.77236 251.70702,770.47453 253.75663,803.38494 256.11709,839.49605 259.19151,867.48642 262.97019,887.37546 L 267.92909,906.22998 172.03429,905.20031 z"
                         style="fill:#63432e;fill-rule:evenodd" />
                    <path
                         inkscape:connector-curvature="0"
                         id="path4685"
                         d="M 297.68737,647.0702 260.84286,661.47093 C 259.1138,730.03105 259.1138,775.96769 260.84286,799.28085 L 267.92909,906.23483 C 261.47426,864.18372 257.85101,839.50091 257.06419,832.18641 255.64597,821.21465 254.62602,804.7643 253.99462,782.82564 L 249.74483,647.0702 H 297.68737 z"
                         style="fill:#3f2a20;fill-rule:evenodd" />
                    <path
                         inkscape:connector-curvature="0"
                         id="path4687"
                         d="M 265.80177,578.85493 274.30136,570.96731 C 283.28178,637.70122 286.97789,676.09994 285.40425,686.15374 283.51491,697.35377 282.01898,722.14829 280.91647,760.54215 279.81395,801.21876 280.20736,827.27121 282.09669,838.69952 285.40425,856.75751 287.76471,870.35685 289.17807,879.49269 L 284.69028,884.981 C 282.16955,875.15062 280.59591,868.29266 279.96451,864.41199 278.07517,855.49471 276.73467,845.89746 275.95271,835.61538 274.68991,822.36088 275.08332,795.16219 277.13293,754.02418 279.02227,712.2062 279.65367,686.95027 279.02227,678.26612 277.92461,663.64197 273.51939,630.50328 265.80177,578.85493 z"
                         style="fill:#3f2a20;fill-rule:evenodd" />
                    <path
                         inkscape:connector-curvature="0"
                         id="path4689"
                         d="M 286.82247,559.65557 295.08892,552.11279 C 299.1833,625.01983 300.60152,669.69853 299.34358,686.15374 295.08892,738.94348 296.11373,778.48357 302.40829,804.7643 304.92902,814.8181 307.76546,830.47677 310.90788,851.73061 L 305.94897,857.90374 C 303.27282,831.85128 299.96526,813.10847 296.03116,801.68502 290.36315,784.99668 288.23583,762.26149 289.65404,733.46488 290.28544,717.92763 291.31025,697.00893 292.72361,670.73305 292.25735,653.12676 290.2903,616.10255 286.82247,559.65557 z"
                         style="fill:#3f2a20;fill-rule:evenodd" />
                    <path
                         inkscape:connector-curvature="0"
                         id="path4691"
                         d="M 309.97049,653.58817 C 308.55228,624.79156 309.57223,585.59631 313.04006,536.00728 L 322.4916,527.43484 C 317.92611,600.56531 316.19705,645.244 317.29471,661.47093 317.45499,664.4385 319.49975,686.15374 323.43384,726.60207 326.43056,758.14284 327.92163,779.05183 327.92163,789.33876 327.92163,795.05048 327.36794,809.33465 326.26542,832.18641 L 321.78249,838.0147 C 321.78249,816.76086 321.38423,799.05258 320.60227,784.88012 319.97087,775.05945 317.99896,753.34421 314.69626,719.74897 312.33581,693.91993 310.75731,671.86471 309.97049,653.58817 z"
                         style="fill:#3f2a20;fill-rule:evenodd" />
                    <path
                         inkscape:connector-curvature="0"
                         id="path4693"
                         d="M 351.30764,567.19834 C 348.78205,589.14186 346.50416,612.45015 344.4594,637.13296 340.52045,686.95513 339.65592,719.17586 341.86095,733.80001 345.63963,760.77042 348.54892,783.28219 350.59853,801.33047 L 346.34388,806.47393 344.92566,797.22152 C 339.73363,770.25111 337.05747,756.54006 336.89719,756.08351 334.85243,742.14418 334.29875,726.48551 335.24584,709.12206 336.81948,682.37992 338.63111,638.73088 340.68072,578.1701 L 351.30764,567.19834 z"
                         style="fill:#3f2a20;fill-rule:evenodd" />
                    <path
                         inkscape:connector-curvature="0"
                         id="path4695"
                         d="M 363.11479,616.56395 368.7828,613.47496 370.20101,630.27015 C 366.89346,676.43506 365.55295,706.83445 366.18435,721.45375 366.66033,733.56688 367.04888,742.70758 367.36458,748.87585 367.99598,759.3862 369.02079,768.53176 370.43415,776.29796 L 365.23725,782.81593 364.05703,776.98764 C 361.53629,765.55448 360.51634,751.96485 360.98746,736.19447 361.77428,714.25581 362.08998,702.13782 361.93456,699.85993 361.30316,684.55581 361.69657,656.78887 363.11479,616.56395 z"
                         style="fill:#3f2a20;fill-rule:evenodd" />
                    <path
                         inkscape:connector-curvature="0"
                         id="path4697"
                         d="M 319.42204,840.75885 314.22514,847.27196 C 314.85654,842.24506 315.17224,835.84366 315.17224,828.0726 315.17224,818.93676 312.02011,798.36775 305.72555,766.37044 302.7337,751.97456 303.0494,727.7483 306.67265,693.69652 306.04125,710.15172 306.43952,724.09105 307.85288,735.5145 310.37362,755.40354 313.20519,771.85389 316.35247,784.88012 319.02377,796.5367 320.04858,815.15808 319.42204,840.75885 z"
                         style="fill:#3f2a20;fill-rule:evenodd" />
                    <path
                         inkscape:connector-curvature="0"
                         id="path4699"
                         d="M 268.40021,656.66745 C 269.81843,675.18198 270.13413,689.57786 269.34731,699.86479 L 267.46283,732.43036 259.90062,707.74755 C 257.69559,699.9765 257.22447,689.9227 258.48241,677.58129 259.1138,671.40816 259.90062,666.04128 260.84286,661.47093 L 268.40021,656.66745 z"
                         style="fill:#3f2a20;fill-rule:evenodd" />
                    <polygon
                         id="polygon4701"
                         points="52.509,90.628 54.697,98.604 53.19,100.156 "
                         style="fill:#3f2a20;fill-rule:evenodd"
                         transform="matrix(4.8569087,0,0,4.8569087,15.496109,410.86903)" />
                    <polygon
                         id="polygon4703"
                         points="56.011,82.088 59.803,92.04 57.761,94.439 "
                         style="fill:#3f2a20;fill-rule:evenodd"
                         transform="matrix(4.8569087,0,0,4.8569087,15.496109,410.86903)" />
                    <path
                         inkscape:connector-curvature="0"
                         id="path4705"
                         d="M 251.8673,905.88999 C 258.16671,900.86309 260.84286,895.49135 259.89577,889.77963 258.47755,881.55688 254.22775,845.56233 247.14152,781.79598 243.20743,750.72148 243.05201,707.41243 246.6704,651.87853 L 250.21109,731.41041 C 250.68221,750.37664 251.39132,765.1125 252.33842,775.62771 L 253.75663,803.39465 C 256.11709,839.50577 259.19151,867.49613 262.97019,887.38517 L 267.92909,906.23969 251.8673,905.88999 z"
                         style="fill:#754e34;fill-rule:evenodd" />
                    <path
                         inkscape:connector-curvature="0"
                         id="path4707"
                         d="M 210.06388,838.69952 C 205.02727,858.35543 202.19084,873.32442 201.56429,883.6065 201.08832,891.60582 202.35111,898.92033 205.34297,905.55001 H 194.00209 L 194.94919,886.69549 C 195.736,877.32166 200.77262,861.323 210.06388,838.69952 z"
                         style="fill:#754e34;fill-rule:evenodd" />
                    <path
                         inkscape:connector-curvature="0"
                         id="path4709"
                         d="M 224.94545,635.07363 232.26481,644.32604 V 661.12609 C 232.10939,666.38126 231.39543,674.72058 230.13749,686.14888 229.19039,694.37163 229.11268,719.97239 229.90436,762.9366 L 231.32257,824.98361 229.67122,801.67531 C 228.56871,784.76355 228.01502,772.42215 228.01502,764.65109 228.01016,752.31455 226.98535,709.12206 224.94545,635.07363 z"
                         style="fill:#754e34;fill-rule:evenodd" />
                    <path
                         style="fill:#543a2d;fill-rule:evenodd"
                         d="M 217.38325,615.53429 224.94545,616.21911 228.95726,773.90836 C 229.58866,787.61941 231.1623,807.84844 233.68303,834.58572 236.35919,864.5237 238.87507,888.29341 241.24038,905.88999 H 233.68303 C 232.73593,869.09405 230.14234,831.27331 225.88769,792.4229 223.36696,769.34287 220.53538,710.37514 217.38325,615.53429 z"
                         id="path4711"
                         inkscape:connector-curvature="0" />
                    <path
                         style="fill:#543a2d;fill-rule:evenodd"
                         d="M 233.91616,616.90394 241.7115,617.92874 C 238.71964,667.52264 238.01054,706.71789 239.58417,735.50964 240.68669,752.19798 244.30995,779.39181 250.44908,817.10085 256.43279,852.52228 259.58007,876.74854 259.89577,889.77477 L 260.13375,905.88514 H 254.93686 L 254.70373,895.9479 C 253.91205,877.42851 250.37137,846.81056 244.07681,804.06976 237.46171,758.82766 233.92102,733.3386 233.4499,727.62688 232.1871,711.86621 232.34252,674.95371 233.91616,616.90394 z"
                         id="path4713"
                         inkscape:connector-curvature="0" />
                    <path
                         style="fill:#543a2d;fill-rule:evenodd"
                         d="M 201.32631,648.4447 201.55944,640.2171 201.79743,639.52742 203.21564,630.61499 C 209.19935,709.69032 212.19121,766.25387 212.19121,800.30566 212.19121,814.93467 209.90846,832.18641 205.34297,852.07059 200.6172,871.95477 198.25674,889.66306 198.25674,905.20031 V 905.54515 L 190.4614,905.20031 C 192.0399,888.97338 192.98699,879.72097 193.29784,877.43337 194.24008,871.04167 196.92109,858.69541 201.32631,840.41401 204.47358,827.15951 205.88694,815.26979 205.5761,804.75944 L 199.90809,675.17712 200.85519,656.66259 V 655.29294 L 201.32631,648.4447 z"
                         id="path4715"
                         inkscape:connector-curvature="0" />
                    <path
                         style="fill:#543a2d;fill-rule:evenodd"
                         d="M 227.06792,905.55001 H 207.70343 L 215.26078,871.26995 C 217.30554,859.83679 218.72375,835.15883 219.51057,797.22152 221.71561,818.70363 222.81813,833.55605 222.81813,841.78366 222.66271,851.61404 222.66271,859.72508 222.81813,866.12648 223.12897,877.77821 224.15378,888.1817 225.88284,897.32241 L 227.06792,905.55001 z"
                         id="path4717"
                         inkscape:connector-curvature="0" />
                    <polygon
                         style="fill:#543a2d;fill-rule:evenodd"
                         points="35.343,101.639 32.571,101.779 34.614,97.191 "
                         id="polygon4719"
                         transform="matrix(4.8569087,0,0,4.8569087,15.496109,410.86903)" />
                    <polygon
                         style="fill:#543a2d;fill-rule:evenodd"
                         points="40.692,58.585 38.649,45.244 40.498,46.162 "
                         id="polygon4721"
                         transform="matrix(4.8569087,0,0,4.8569087,15.496109,410.86903)" />
                    <polygon
                         style="fill:#301f19;fill-rule:evenodd"
                         points="38.601,45.809 48.57,47.292 48.813,55.408 37.968,54.42 "
                         id="polygon4723"
                         transform="matrix(4.8569087,0,0,4.8569087,15.496109,410.86903)" />
                    <polygon
                         id="polygon4725"
                         points="63.451,49.974 48.813,55.408 48.57,47.15 63.451,48.421 "
                         style="fill:#281a16;fill-rule:evenodd"
                         transform="matrix(4.8569087,0,0,4.8569087,15.496109,410.86903)" />
                    <path
                         inkscape:connector-curvature="0"
                         id="path4727"
                         d="M 180.06762,888.40512 173.6905,905.20031 175.81782,890.12447 C 183.21489,858.35543 188.41664,828.0726 191.40364,799.28085 193.45326,780.08149 195.42031,753.80076 197.30964,720.43865 L 198.25674,713.92068 C 199.20384,725.57726 199.51468,740.08971 199.20384,757.45801 198.72786,792.4229 195.58058,824.64848 189.75715,854.12992 187.8581,863.72231 184.63311,875.15062 180.06762,888.40512 z"
                         style="fill:#754e34;fill-rule:evenodd" />
                </g>
            </g>
            <g
                 transform="translate(-4,-140)"
                 id="g4446">
                <polygon
                     id="polygon4354"
                     points="56.289,50.589 213.378,51.008 213.378,63.547 56.615,63.547 "
                     style="fill:#33221b;fill-rule:evenodd"
                     transform="matrix(4.8569087,0,0,4.8569087,-296.49658,183.55694)" />
                <polygon
                     id="polygon4356"
                     points="58.753,56.441 210.551,56.615 210.551,62.711 59.08,62.711 "
                     style="fill:#442d24;fill-rule:evenodd"
                     transform="matrix(4.8569087,0,0,4.8569087,-296.49658,183.55694)" />
                <polygon
                     id="polygon4358"
                     points="58.753,56.441 210.551,56.615 210.551,62.711 59.08,62.711 "
                     style="fill:#38241e;fill-rule:evenodd"
                     transform="matrix(4.8569087,0,0,4.8569087,-296.49658,183.55694)" />
                <polygon
                     id="polygon4360"
                     points="213.849,52.4 213.849,56.093 56.325,56.232 56.688,52.4 "
                     style="fill:#1e1311;fill-rule:evenodd"
                     transform="matrix(4.8569087,0,0,4.8569087,-296.49658,183.55694)" />
                <path
                     inkscape:connector-curvature="0"
                     id="path4362"
                     d="M 739.86086,467.33152 V 472.91211 H 739.33632 C 600.25874,471.33362 516.1128,470.82364 486.88878,471.3919 439.12109,472.17872 367.23398,472.91211 271.23719,473.58722 146.47778,474.60717 75.65434,474.60717 58.752298,473.58722 15.093548,470.65365 -11.838012,468.85174 -22.052092,468.17663 L -22.226942,463.78112 C -13.076522,464.56794 0.4839678,465.47133 18.439958,466.48642 43.321898,467.8415 64.561158,468.6866 82.16745,469.02173 104.35381,469.47342 169.89779,469.25 278.80911,468.34662 386.19536,467.55494 457.0188,466.76812 491.294,465.97645 510.07081,465.52475 550.38315,465.69474 612.23102,466.48156 678.06642,467.27324 720.61293,467.55494 739.86086,467.33152 z"
                     style="fill:#261915;fill-rule:evenodd" />
                <path
                     inkscape:connector-curvature="0"
                     id="path4364"
                     d="M 739.86086,476.80249 V 483.06305 C 620.85203,479.68264 551.67023,479.06096 532.31059,481.198 511.18304,483.56817 472.15778,485.25837 415.23967,486.27347 358.90439,487.18171 324.2212,486.77858 311.19983,485.09324 301.22374,483.73816 274.05419,483.28647 229.69119,483.73816 183.09887,484.30156 155.87104,484.24328 148.0077,483.57302 130.87739,482.2228 74.304118,482.44622 -21.697532,484.24814 L -21.872382,478.32756 -21.697532,478.15757 42.913918,477.48246 C 89.85594,477.14734 122.95091,477.14734 142.19884,477.48246 143.25279,477.48246 172.65166,477.6476 230.39544,477.98758 270.77092,478.211 300.16494,478.7744 318.59205,479.68264 347.6995,481.14457 381.56186,481.99453 420.16943,482.21795 467.46601,482.44137 503.14486,481.36799 527.20112,479.00267 546.56562,477.07934 581.89477,476.0691 633.17887,475.95739 671.67472,475.84568 707.23215,476.12253 739.86086,476.80249 z"
                     style="fill:#261915;fill-rule:evenodd" />
                <path
                     style="fill:#3a261f;fill-rule:evenodd"
                     d="M 736.86901,485.59836 V 492.19404 H 724.19733 C 662.34946,489.37217 622.27025,487.74025 603.95971,487.28856 596.33436,487.17685 581.95305,488.80877 560.8255,492.19404 H 424.04524 C 501.50322,487.79368 558.07163,484.40841 593.74563,482.0431 618.27301,480.35289 665.98243,481.54284 736.86901,485.59836 z"
                     id="path4368"
                     inkscape:connector-curvature="0" />
                <path
                     style="fill:#3a261f;fill-rule:evenodd"
                     d="M -24.514542,486.78344 V 486.61831 C -24.159992,486.61831 -19.351652,486.84172 -10.074952,487.29827 1.6641978,487.6334 13.864748,487.6334 26.541278,487.29827 30.533658,487.18656 59.932528,487.12828 114.73788,487.12828 162.62214,487.12828 195.4257,486.67659 213.14856,485.7732 224.1786,485.21466 237.32625,485.71978 252.5818,487.29827 260.32857,487.97338 273.76278,489.61016 292.89414,492.20375 H -21.522692 L -24.514542,486.78344 z"
                     id="path4370"
                     inkscape:connector-curvature="0" />
                <path
                     inkscape:connector-curvature="0"
                     id="path4372"
                     d="M 739.86086,454.9804 V 460.22587 C 722.84225,460.67756 709.99573,461.34781 701.30672,462.25605 694.96846,462.81945 663.86481,462.76117 608.00065,462.08606 547.79442,461.40609 511.06162,461.24096 497.80226,461.58094 487.47647,461.91607 447.63039,462.42605 378.27374,463.10116 316.18788,463.78112 280.92186,464.45138 272.47084,465.13134 258.50723,466.14644 235.79633,466.8264 204.34299,467.16153 168.08131,467.49666 140.0278,466.99154 120.19705,465.64132 101.8865,464.39795 73.604718,463.78112 35.341998,463.78112 L -16.592922,463.9414 V 458.7008 L 48.018528,459.37591 C 92.96436,460.05587 119.95906,461.01268 128.99776,462.25605 139.09042,463.60627 162.38901,464.17453 198.88382,463.94626 232.92104,463.83941 255.98164,463.27115 268.07048,462.25605 279.80477,461.24096 318.06264,459.99759 382.84409,458.5308 450.09284,456.95231 494.51413,456.44233 516.10794,457.01059 545.91965,457.69056 579.71887,458.08397 617.51048,458.19568 663.39855,458.4191 692.03488,458.02569 703.41948,457.01059 712.33676,456.10721 724.48389,455.4321 739.86086,454.9804 z"
                     style="fill:#261915;fill-rule:evenodd" />
                <polygon
                     id="polygon4374"
                     points="57.594,63.651 59.188,63.756 55.963,64.905 55.817,52.818 57.594,52.993 "
                     style="fill:#211512;fill-rule:evenodd"
                     transform="matrix(4.8569087,0,0,4.8569087,-296.49658,183.55694)" />
                <polygon
                     id="polygon4376"
                     points="214.175,51.111 214.175,64.417 211.348,63.442 212.87,63.233 212.87,53.516 "
                     style="fill:#211512;fill-rule:evenodd"
                     transform="matrix(4.8569087,0,0,4.8569087,-296.49658,183.55694)" />
                <path
                     inkscape:connector-curvature="0"
                     id="path4378"
                     d="M 725.24642,485.09324 726.13038,490.16871 H -9.0258622 L -9.5552622,484.58812 373.51397,486.61831 C 404.38448,486.95343 521.62539,486.44346 725.24642,485.09324 z"
                     style="fill:#4c3325;fill-rule:evenodd" />
            </g>
            <g
                 id="g4328">
                <path
                     style="fill:#502d16;fill-opacity:1;stroke:none"
                     d="M -190,261.52885 -46.666667,129.02885 750,129.02885 898.33333,260.69552 898.33333,288.19552 C 898.33333,288.19552 615.06731,311.83203 330.83333,309.02885 84.987737,306.60427 -188.33333,286.52885 -188.33333,286.52885 z"
                     id="path3517"
                     inkscape:connector-curvature="0"
                     sodipodi:nodetypes="cccccscc" />
                <path
                     style="fill:#63432e;fill-rule:evenodd"
                     d="M -186.89774,272.5977 V 264.82664 L 897.64991,261.42681 H 897.89281 V 268.22648 L 500.8405,269.44071 C 488.04741,270.25181 422.40143,271.46604 303.89286,273.08339 146.52903,275.02615 56.107964,275.51184 32.634524,274.54046 14.503694,273.56908 -23.788176,273.16595 -82.231356,273.32623 -139.86829,273.32623 -174.75547,273.08339 -186.89774,272.5977 z M 658.69003,289.83972 C 587.9443,292.75387 516.94601,294.85691 445.70974,296.1537 441.17824,296.1537 436.64674,296.31398 432.11039,296.63939 L 460.28046,296.8871 C 442.31476,297.04737 424.26163,297.20765 406.13079,297.37279 367.59608,297.53306 328.90594,297.29022 290.05068,296.64425 309.31803,296.15856 330.60586,295.51259 353.91902,294.70634 400.21993,293.40955 435.83564,292.03504 460.77101,290.57312 482.30654,289.27632 496.14387,288.55264 502.29758,288.39236 523.50284,288.05724 575.6369,288.54778 658.69003,289.83972 z M 157.69992,293.4824 C 120.14145,292.35074 93.749004,291.61735 78.532314,291.29679 53.601804,290.32541 27.049084,288.95091 -1.1209857,287.16842 L -83.202736,280.85444 C -59.083336,281.17985 -38.922306,281.10214 -22.734226,280.6116 -11.888756,280.29104 -3.5494357,280.36875 2.2788543,280.85444 26.728524,282.47665 111.39901,282.47665 256.29516,280.85444 383.86672,279.39737 464.00571,278.10543 496.71213,276.96891 512.90506,276.48322 646.63033,275.67212 897.89761,274.54046 867.45941,277.78002 825.52971,280.93215 772.1037,284.01143 614.25417,282.2338 519.54446,281.58298 487.97455,282.06867 450.57636,282.71949 386.70801,284.82254 296.36951,288.38751 211.21334,291.78249 165.96152,293.48726 160.61892,293.48726 159.64268,293.4824 158.6713,293.4824 157.69992,293.4824 z"
                     id="path198"
                     inkscape:connector-curvature="0" />
                <path
                     style="fill:#593b2b;fill-rule:evenodd"
                     d="M 897.89281,274.54046 C 646.63033,275.67212 512.90021,276.48322 496.70728,276.96891 464.00571,278.10057 383.86672,279.39737 256.2903,280.85444 111.39415,282.47665 26.718814,282.47665 2.2739943,280.85444 -3.5542957,280.36875 -11.893606,280.29104 -22.739086,280.6116 -38.927166,281.10214 -59.083336,281.17985 -83.207596,280.85444 L -186.89774,272.5977 C -174.75547,273.08339 -139.86829,273.32138 -82.231356,273.32138 -23.788176,273.1611 14.503694,273.56422 32.634524,274.5356 56.107964,275.50698 146.52903,275.02615 303.89286,273.07853 422.40143,271.46118 488.05226,270.24695 500.8405,269.43585 L 897.89281,268.22648 V 274.54046 z M 834.51011,292.99671 C 835.15611,292.83643 836.21001,292.75387 837.66221,292.75387 L 834.99581,292.99671 H 834.51011 z M 414.38753,307.81028 C 416.49057,307.81028 418.59362,307.81028 420.70151,307.81028 H 464.65654 L 461.49955,308.77681 414.38753,307.81028 z M 290.05068,296.63939 C 246.01794,296.1537 201.89779,295.10461 157.69992,293.48726 158.6713,293.48726 159.64268,293.48726 160.61406,293.48726 165.95666,293.48726 211.20848,291.78249 296.36466,288.38751 386.70315,284.82739 450.5715,282.71949 487.9697,282.06867 519.5396,281.58298 614.24932,282.2338 772.09884,284.01143 766.43569,284.49712 758.09638,284.98281 747.09062,285.4685 717.94917,287.09071 688.48231,288.54778 658.69489,289.83972 575.6369,288.54293 523.5077,288.05724 502.30243,288.38265 496.14873,288.54293 482.3114,289.27146 460.77587,290.5634 435.8405,292.02533 400.22479,293.39984 353.92388,294.69663 330.60586,295.50288 309.31803,296.1537 290.05068,296.63939 z"
                     id="path200"
                     inkscape:connector-curvature="0" />
                <path
                     style="fill:#8e6042;fill-rule:evenodd"
                     d="M -83.931276,165.98856 H -85.874036 -89.031026 L -82.231356,162.34587 -80.045746,161.13165 -55.761206,159.43173 C -37.465236,158.30007 -23.137356,158.30007 -12.777566,159.43173 -3.5494357,160.56339 11.103854,163.15698 31.177454,167.20278 53.519234,171.89456 68.089964,174.73099 74.889634,175.70237 91.728534,178.13083 114.23059,180.39415 142.40066,182.50204 H 124.91579 120.30172 C 118.19382,182.50204 114.47343,182.17663 109.13083,181.53066 L 103.0597,181.04497 C 102.24859,181.04497 101.35978,180.9624 100.3884,180.80213 H 99.417024 C 98.605914,180.64185 97.799674,180.55928 96.988564,180.55928 96.828284,180.55928 96.668014,180.55928 96.502874,180.55928 96.017184,180.39415 95.609204,180.31644 95.288644,180.31644 L 93.831574,180.07359 C 87.517594,179.42762 80.314804,178.53395 72.218334,177.40229 43.562574,174.00245 24.377784,171.24859 14.663964,169.14555 13.532304,168.98527 12.318084,168.82013 11.021284,168.65986 L -83.931276,165.98856 z M 238.81029,143.88962 C 284.79064,140.97548 334.97708,135.79316 389.37445,128.34751 390.29727,128.19209 391.22979,128.10953 392.16718,128.10467 391.70091,128.11924 391.17637,128.20181 390.58868,128.34751 375.6974,131.42194 358.1251,134.57893 337.89122,137.81849 337.57067,137.81849 337.32297,137.90105 337.16269,138.06133 294.90758,144.53559 259.20931,148.17827 230.06785,148.98938 192.50938,150.12104 149.8463,146.96404 102.08832,139.5184 L 84.846294,136.36141 41.619814,128.10467 109.61653,137.57564 C 141.51184,141.30089 169.11365,143.64678 192.42681,144.61816 206.51185,144.94357 219.05724,144.861 230.06785,144.37531 232.982,144.21503 235.89615,144.0499 238.81029,143.88962 z M 897.64991,261.42681 -186.89774,264.82664 -179.12669,257.78413 891.33111,255.35567 H 892.05961 L 894.73091,258.27467 895.22151,258.76036 V 259.00321 L 897.64991,261.42681 z M -66.932096,235.92804 C -96.394106,234.14555 -124.88959,232.12508 -152.41369,229.8569 -131.20357,230.17746 -108.61895,230.74572 -84.659816,231.55682 -36.736696,232.68848 -5.7350457,233.65986 8.3499843,234.47096 17.903524,234.95666 28.180744,234.6361 39.191354,233.49958 37.248594,233.98527 36.116934,234.71381 35.791524,235.68519 35.145554,237.79309 32.231404,239.00732 27.049084,239.32787 11.832394,239.97384 -19.494666,238.84218 -66.932096,235.92804 z M 302.67864,189.30172 H 299.03596 L 341.53391,186.87326 C 372.29271,185.09078 393.58054,184.20196 405.40225,184.20196 408.96237,184.20196 410.34173,184.36224 409.53548,184.68765 407.26731,185.17334 405.72767,185.58132 404.92142,185.90188 402.65324,187.03354 405.72767,188.17006 414.14469,189.30172 412.68761,189.30172 411.15283,189.30172 409.53548,189.30172 H 302.67864 z M 624.44883,155.78905 C 617.48402,154.81767 608.98443,153.52087 598.95006,151.90352 L 569.8086,146.80377 566.16592,146.31808 572.4799,146.80377 598.70235,149.96076 C 620.72358,152.54949 636.5911,153.84628 646.30491,153.84628 662.17243,153.84628 690.33765,152.54949 730.81026,149.96076 L 681.5175,155.06051 C 663.05639,156.843 650.59356,157.73181 644.1193,157.73181 640.23378,157.73181 633.67695,157.08584 624.44883,155.78905 z M 583.40795,216.74325 C 572.56247,216.74325 552.40144,216.25756 522.93944,215.28618 485.05555,214.15452 457.28861,212.69744 439.64346,210.91496 422.32372,209.45789 409.45291,208.80706 401.03589,208.9722 395.36788,209.61816 391.96804,209.94358 390.83153,209.94358 L 402.73095,207.27228 C 413.25587,205.65493 424.74732,205.24695 437.215,206.05805 458.5854,207.51512 488.05226,209.5356 525.61074,212.12918 568.67695,215.20361 587.9443,216.74325 583.40795,216.74325 z M 97.474254,225.24284 C 126.29515,223.30007 166.11694,222.65411 216.9542,223.30007 174.6991,223.94604 144.66883,224.91742 126.85855,226.21422 98.037664,228.15698 73.189714,229.93947 52.305004,231.55682 71.246954,228.15698 86.303364,226.05394 97.474254,225.24284 z"
                     id="path202"
                     inkscape:connector-curvature="0" />
                <path
                     style="fill:#775135;fill-rule:evenodd"
                     d="M -56.489746,296.39655 -29.776746,298.58216 C -43.536366,297.77105 -54.061286,296.96481 -61.346646,296.1537 L -56.489746,296.39655 z M 879.67941,245.15616 891.33111,255.35567 -179.12669,257.78413 -186.89774,264.82664 V 272.5977 286.92072 L -180.09807,287.65411 -189.32619,286.92558 V 262.39819 L -85.874036,165.98856 H -83.931276 L -96.802086,178.13083 C -87.734236,177.15945 -75.028566,175.29925 -58.675346,172.54538 -42.322136,171.24859 -22.165966,172.62795 1.7931643,176.67375 36.602624,182.66232 70.110434,186.22729 102.33116,187.35895 121.11283,187.84464 150.98281,187.44152 191.94112,186.14473 192.1014,186.14473 230.39327,183.23058 306.80701,177.40229 362.66146,173.19135 412.60505,172.30254 456.64264,174.73099 534.03262,178.94193 646.06207,177.15945 792.74071,169.38839 L 796.38339,172.54538 798.569,171.81685 807.79712,180.07359 755.58536,187.6018 C 692.12013,196.01882 643.87646,199.34095 610.84462,197.55846 565.19454,195.29028 509.98121,193.26981 445.22404,191.48733 L 430.65332,191.00163 C 423.85365,190.51594 418.35077,189.94769 414.13983,189.30172 405.72281,188.17006 402.64839,187.03354 404.91656,185.90188 405.72281,185.58132 407.26245,185.17334 409.53062,184.68765 410.33687,184.3671 408.96237,184.20196 405.3974,184.20196 393.57568,184.20196 372.29271,185.09078 341.52905,186.87326 L 299.0311,189.30172 H 302.67378 C 268.67542,190.59851 218.57155,192.78412 152.35246,195.85854 125.47433,197.15534 92.855334,199.25838 54.485764,202.17252 33.440774,203.6296 17.330414,203.95501 6.1595243,203.14391 -46.134816,199.41866 -87.418536,197.55846 -117.69165,197.55846 L -127.40547,207.02943 C -109.76032,207.02943 -85.636046,208.00081 -55.037526,209.94358 -24.439006,211.72606 -4.6859557,212.61488 4.2167543,212.61488 16.359024,212.61488 72.130904,209.7833 171.53725,204.11529 270.9436,198.44728 330.84385,195.6157 351.24287,195.6157 367.11039,195.6157 413.16845,197.47589 489.41706,201.20114 560.16764,204.60098 605.01633,205.97548 623.95342,205.32951 651.79808,204.19785 714.45705,197.64103 811.91581,185.65903 L 817.98691,191.00163 794.67375,194.40147 C 783.98856,196.18396 768.68444,198.20929 748.77597,200.47261 730.80541,202.41537 720.76618,203.38675 718.66314,203.38675 L 759.46117,203.87244 C 790.38025,204.03272 807.86998,203.87244 811.91581,203.38675 814.34421,203.0662 820.65821,202.74078 830.85771,202.41537 L 843.96651,213.8291 827.93871,214.55764 C 795.88312,216.01471 742.29685,216.98609 667.17505,217.47178 585.0933,218.11775 529.88482,217.55435 501.54961,215.77187 471.76219,213.50369 450.3918,212.12918 437.44328,211.64349 417.85051,210.67211 385.06638,210.42927 339.09088,210.91496 310.92081,211.23551 256.36316,212.85772 175.41306,215.77187 114.53657,218.03519 76.574984,218.44317 61.518564,216.98609 48.079494,216.01471 16.917574,216.34012 -31.976926,217.95748 -87.185406,220.06537 -124.34076,221.35731 -143.44298,221.843 L -148.29989,226.45706 C -146.5174,226.45706 -113.8984,225.16027 -50.433176,222.57154 -9.7954257,221.11447 21.449064,220.95419 43.305154,222.08585 72.286334,223.38264 120.69028,222.97466 188.52672,220.87162 269.9625,218.28289 317.39507,216.98609 330.83414,216.98609 357.70741,216.98609 387.74253,218.60344 420.92979,221.843 460.75644,225.40312 488.68366,227.58873 504.71146,228.39983 544.53811,229.8569 649.60761,227.35074 819.92481,220.87162 L 850.76621,219.90024 867.76541,234.71381 C 828.25931,239.57072 790.29768,242.48486 753.87087,243.45625 712.58714,244.26735 630.10227,242.08174 506.41138,236.89942 390.01071,232.20765 314.40321,228.23955 279.59375,224.99999 256.606,222.89209 209.5717,223.62549 138.50056,227.1856 104.98789,228.96809 76.249564,230.42516 52.290434,231.55682 51.965024,231.55682 51.644464,231.55682 51.319054,231.55682 50.673084,231.55682 50.104824,231.63939 49.619134,231.79967 46.059024,232.28536 42.576624,232.85361 39.176784,233.49958 28.166174,234.63124 17.888954,234.95666 8.3354143,234.47096 -5.7496157,233.65986 -36.751266,232.68848 -84.674386,231.55682 -108.63352,230.74572 -131.21814,230.17746 -152.42826,229.8569 -124.90416,232.12508 -96.413526,234.14555 -66.946666,235.92804 L -155.32783,232.77105 -163.58458,240.5421 C -70.171656,246.04498 -13.588666,248.79884 6.1643743,248.79884 16.524164,248.79884 50.444814,246.37039 107.91661,241.51348 165.38841,236.33116 210.31481,233.74243 242.69582,233.74243 273.78003,233.74243 365.33276,237.30254 517.35399,244.42763 669.38009,251.38758 753.64259,254.86998 770.16094,254.86998 795.8977,254.86998 832.40711,251.63042 879.67941,245.15616 z M 783.75542,161.13165 C 659.25343,170.68033 546.57315,172.87079 445.70974,167.68847 394.06623,165.09974 349.86836,165.50286 313.11613,168.9027 271.99755,174.08502 236.29927,177.97055 206.0213,180.55928 177.52582,182.98774 150.49227,183.6337 124.91093,182.50204 H 142.3958 C 114.22573,180.39415 91.723674,178.13083 74.884774,175.70237 68.085104,174.73099 53.514374,171.89456 31.172604,167.20278 11.098994,163.15698 -3.5542957,160.56339 -12.782426,159.43173 -23.142206,158.30007 -37.470086,158.30007 -55.766066,159.43173 L -80.050606,161.13165 -82.236216,162.34587 -48.480696,130.77597 5.1929943,127.37613 C 36.762904,130.93625 63.315624,133.93296 84.846294,136.36141 L 102.08832,139.5184 C 149.8463,146.96404 192.50938,150.12104 230.06785,148.98938 259.20931,148.17827 294.90758,144.53559 337.16269,138.06133 352.05397,136.44398 364.84707,134.73921 375.53226,132.96158 L 399.81681,128.34751 747.32861,129.56174 753.64259,134.90434 C 696.81676,132.31561 638.29101,131.42679 578.06535,132.23304 528.52974,132.87901 460.45045,136.20114 373.83235,142.1897 283.49385,148.17827 228.77106,151.41783 209.66884,151.90352 179.07032,152.54949 144.74654,151.74324 106.70238,149.47507 54.087494,146.23551 23.814384,144.45788 15.878194,144.13247 -7.1095557,143.32136 -32.205196,143.00081 -59.403886,143.16109 L -72.760386,155.78905 C -48.315566,154.33198 -20.466056,153.60344 10.778444,153.60344 48.336914,153.60344 80.392514,154.7351 106.94522,157.00327 122.16192,158.46035 145.55765,160.56339 177.12755,163.31726 197.04088,164.61405 254.10955,161.21421 348.33358,153.11775 457.29346,143.88962 533.86748,138.62959 578.06535,137.3328 640.0735,135.55031 702.16422,137.90105 764.33265,144.37531 L 768.46102,147.77515 C 755.18709,147.12918 719.80937,146.80377 662.33757,146.80377 H 572.48476 L 566.17078,146.31808 569.81346,146.80377 H 556.69981 L 586.32695,151.66068 C 602.68016,153.76372 615.38583,155.14308 624.45854,155.78905 633.68181,157.08584 640.24349,157.73181 644.12902,157.73181 650.60328,157.73181 663.06611,156.843 681.52721,155.06051 704.02927,153.76372 733.57385,151.90352 770.16579,149.47507 L 783.75542,161.13165 z M 273.29434,128.10467 C 229.25675,131.82992 192.91251,133.44727 164.25675,132.96158 137.05806,132.31561 111.0736,130.53312 86.303364,127.61898 L 273.29434,128.10467 z M 583.40795,216.74325 C 587.9443,216.74325 568.67695,215.20846 525.61074,212.12918 488.05226,209.5356 458.5854,207.51512 437.215,206.05805 424.75218,205.24695 413.25587,205.65493 402.73095,207.27228 L 390.83153,209.94358 C 391.96319,209.94358 395.36788,209.61816 401.03589,208.9722 409.45291,208.81192 422.32372,209.45789 439.64346,210.91496 457.29346,212.69744 485.06041,214.15452 522.93944,215.28618 552.40144,216.25756 572.56247,216.74325 583.40795,216.74325 z M 159.15699,248.31315 106.21669,254.14144 H 345.66228 C 294.33933,246.53553 257.8348,242.72771 236.13899,242.72771 222.69992,242.72771 197.04088,244.58791 159.15699,248.31315 z M 113.01636,171.33115 C 122.5699,170.84546 130.98692,170.11693 138.27228,169.14555 114.47343,166.55681 92.777624,163.96322 73.189714,161.37449 61.047444,159.91742 47.690944,158.54291 33.120224,157.24612 L 14.663964,155.78905 30.448924,161.86018 C 43.237164,166.39168 55.379434,169.38839 66.875734,170.84546 78.372034,172.46281 93.749004,172.62795 113.01636,171.33115 z M 192.42681,144.61816 C 206.51185,144.61816 221.97139,144.37531 238.81029,143.88962 235.89615,144.0499 232.982,144.21503 230.06785,144.37531 219.05724,144.861 206.51185,144.94357 192.42681,144.61816 z M 97.474254,225.24284 C 86.303364,226.05394 71.246954,228.15698 52.305004,231.55682 73.189714,229.93947 98.042514,228.15698 126.85855,226.21422 144.66883,224.91742 174.6991,223.94604 216.9542,223.30007 166.11694,222.65411 126.29029,223.30007 97.474254,225.24284 z M -35.605036,180.80213 -64.260796,182.74489 0.57893429,190.51594 C 10.127614,191.6476 15.795624,191.73017 17.578114,190.75879 18.549494,190.43823 18.549494,189.94769 17.578114,189.30172 L 25.834854,185.65903 C 29.074414,183.23058 25.023754,181.4481 13.692584,180.31644 2.3614143,179.34505 -14.074356,179.50533 -35.605036,180.80213 z"
                     id="path204"
                     inkscape:connector-curvature="0" />
                <path
                     style="fill:#4c3226;fill-rule:evenodd"
                     d="M -29.776746,298.58216 -56.489746,296.39655 H -55.275516 L -176.69823,287.89696 H -175.484 L -180.09807,287.65411 -186.89774,286.92558 V 272.5977 L -83.202736,280.85444 -1.1209857,287.17328 C 27.049084,288.95091 53.601804,290.32541 78.532314,291.30165 93.749004,291.62221 120.14145,292.3556 157.69992,293.48726 201.89779,295.10461 246.01794,296.15856 290.05068,296.63939 328.90594,297.29022 367.60093,297.53306 406.13079,297.36793 424.26163,297.20765 442.31476,297.04737 460.28046,296.88224 L 432.11039,296.63454 C 436.64674,296.31398 441.17824,296.14885 445.70974,296.14885 516.94601,294.85205 587.93944,292.74901 658.69003,289.83486 688.47745,288.53807 717.94431,287.08585 747.08577,285.46365 758.09638,284.97796 766.43083,284.49227 772.09399,284.00657 825.52001,280.92729 867.45451,277.77516 897.88791,274.5356 V 287.40641 C 868.25591,287.56669 845.51591,287.72697 829.64831,287.8921 797.5879,288.05238 815.56331,288.38265 883.56001,288.86348 L 837.66221,292.74901 C 836.20521,292.74901 835.15121,292.83158 834.51011,292.99186 L 758.98033,297.60592 C 758.17409,297.7662 757.04243,297.84876 755.58536,297.84876 L 748.05715,298.09647 C 746.11924,298.09647 744.73988,298.17903 743.92877,298.33931 L 410.9877,307.56744 420.70151,307.81514 C 418.59362,307.81514 416.49057,307.81514 414.38753,307.81514 H 394.23136 C 386.46031,307.65001 378.60669,307.56744 370.67536,307.56744 369.86425,307.56744 368.97058,307.56744 367.9992,307.56744 268.2723,306.76119 199.62475,306.03266 162.07114,305.38669 97.474254,304.25503 35.388394,301.98685 -24.191296,298.58701 H -26.376906 C -26.697466,298.58701 -27.022876,298.58701 -27.348296,298.58701 H -29.776746 z"
                     id="path206"
                     inkscape:connector-curvature="0" />
                <g
                     id="g4313"
                     transform="translate(0,160)">
                    <path
                         id="path4311"
                         d="M 192.42681,-15.38184 C 169.11365,-16.35322 141.51184,-18.69911 109.61653,-22.42436 L 41.619814,-31.89533 84.846294,-23.63859 C 63.315624,-26.06704 36.762904,-29.06375 5.1929943,-32.62387 L 85.817674,-32.38102 C 85.977954,-32.38102 86.143094,-32.38102 86.303364,-32.38102 111.0736,-29.46688 137.05806,-27.68439 164.25675,-27.03842 192.91251,-26.55273 229.25675,-28.17008 273.29434,-31.89533 273.6149,-31.89533 273.94031,-31.89533 274.26572,-31.89533 L 389.37445,-31.65249 C 334.97708,-24.20684 284.79064,-19.02452 238.81029,-16.11038 221.97139,-15.62469 206.51185,-15.38184 192.42681,-15.38184 z"
                         style="fill:#6d4a31;fill-rule:evenodd"
                         inkscape:connector-curvature="0" />
                    <path
                         id="path4309"
                         d="M 113.01636,11.33115 C 93.749004,12.62795 78.372034,12.46281 66.875734,10.84546 55.379434,9.38839 43.237164,6.39168 30.448924,1.86018 L 14.663964,-4.21095 33.120224,-2.75388 C 47.690944,-1.45709 61.047444,-0.08258 73.189714,1.37449 92.777624,3.96322 114.47343,6.55681 138.27228,9.14555 130.98692,10.11693 122.5699,10.84546 113.01636,11.33115 z"
                         style="fill:#6d4a31;fill-rule:evenodd"
                         inkscape:connector-curvature="0" />
                    <path
                         id="path4307"
                         d="M 159.15699,88.31315 C 197.04088,84.58791 222.69992,82.72771 236.13899,82.72771 257.82994,82.72771 294.33933,86.53067 345.66228,94.14144 H 106.21669 L 159.15699,88.31315 z"
                         style="fill:#6d4a31;fill-rule:evenodd"
                         inkscape:connector-curvature="0" />
                    <path
                         id="path4305"
                         d="M 337.16269,-21.93867 C 337.32297,-22.1038 337.56581,-22.18151 337.89122,-22.18151 358.12996,-25.42107 375.6974,-28.57321 390.58868,-31.65249 H 399.81681 L 375.53226,-27.03842 C 364.84707,-25.25594 352.05397,-23.55602 337.16269,-21.93867 z"
                         style="fill:#6d4a31;fill-rule:evenodd"
                         inkscape:connector-curvature="0" />
                    <path
                         id="path4303"
                         d="M 764.32779,-15.62469 C 702.15936,-22.09895 640.06864,-24.44969 578.06049,-22.6672 533.86263,-21.37041 457.28861,-16.11038 348.32872,-6.88225 254.10469,1.21421 197.03602,4.61405 177.1227,3.31726 145.55279,0.56825 122.16192,-1.53965 106.94037,-2.99673 80.387654,-5.2649 48.332054,-6.39656 10.773584,-6.39656 -20.470906,-6.39656 -48.320426,-5.66802 -72.765246,-4.21095 L -59.408746,-16.83891 C -32.210056,-16.99919 -7.1144057,-16.67864 15.873334,-15.86753 23.804674,-15.54698 54.082634,-13.76449 106.69752,-10.52493 144.74169,-8.25676 179.06546,-7.45051 209.66398,-8.09648 228.7662,-8.58217 283.48899,-11.82173 373.82749,-17.8103 460.4456,-23.79886 528.52488,-27.12099 578.06049,-27.76696 638.28616,-28.57806 696.81191,-27.68439 753.63773,-25.09566 H 756.06619 L 767.23708,-15.38184 C 766.59597,-15.54212 765.62458,-15.62469 764.32779,-15.62469 z"
                         style="fill:#6d4a31;fill-rule:evenodd"
                         inkscape:connector-curvature="0" />
                    <path
                         inkscape:connector-curvature="0"
                         id="path4301"
                         d="M 566.4799,-13.19623 H 656.33271 C 713.80451,-13.19623 749.17737,-12.87082 762.45616,-12.22485 767.9639,-11.9043 771.11603,-11.57888 771.92713,-11.25347 L 764.15608,-10.52493 C 727.56413,-8.09648 698.01956,-6.23628 675.5175,-4.93949 L 724.81026,-10.03924 C 684.33765,-7.45051 656.16758,-6.15372 640.30491,-6.15372 630.5911,-6.15372 614.72358,-7.45051 592.70235,-10.03924 L 566.4799,-13.19623 z"
                         style="fill:#6d4a31;fill-rule:evenodd" />
                    <path
                         id="path4299"
                         d="M 569.8086,-13.19623 598.95006,-8.09648 C 608.98443,-6.47913 617.48402,-5.18233 624.44883,-4.21095 615.38098,-4.85692 602.6753,-6.23628 586.31724,-8.33932 L 556.6901,-13.19623 H 569.8086 z"
                         style="fill:#6d4a31;fill-rule:evenodd"
                         inkscape:connector-curvature="0" />
                    <path
                         id="path4297"
                         d="M 783.75542,1.13165 H 785.69333 L 795.1643,9.14555 792.73585,9.38839 C 646.05721,17.15945 534.0229,18.94193 456.63778,14.73099 412.60505,12.30254 362.6566,13.19135 306.80215,17.40229 230.38841,23.23058 192.09654,26.14473 191.93627,26.14473 150.9731,27.44152 121.10797,27.84464 102.32631,27.35895 70.110434,26.22729 36.597764,22.66232 1.7883043,16.67375 -22.175686,12.62795 -42.326996,11.24859 -58.680206,12.54538 -75.033416,15.29925 -87.739096,17.15945 -96.806936,18.13083 L -83.936136,5.98856 11.016434,8.65986 C 12.313224,8.82013 13.527454,8.98527 14.659114,9.14555 24.372924,11.24859 43.557714,14.00245 72.213474,17.40229 80.309944,18.53395 87.512734,19.42762 93.826724,20.07359 L 95.283794,20.31644 C 95.604344,20.31644 96.012324,20.399 96.498014,20.55928 96.658294,20.55928 96.818574,20.55928 96.983714,20.55928 97.794814,20.55928 98.601064,20.64185 99.412164,20.80213 H 100.38354 C 101.35492,20.9624 102.24374,21.04497 103.05484,21.04497 L 109.12598,21.53066 C 114.46858,22.17663 118.19382,22.50204 120.29687,22.50204 H 124.91093 C 150.49227,23.6337 177.52582,22.98774 206.0213,20.55928 236.29441,17.96569 271.99269,14.08502 313.11613,8.9027 349.8635,5.50286 394.06623,5.09974 445.70974,7.68847 546.57315,12.87079 659.25343,10.68519 783.75542,1.13165 z"
                         style="fill:#6d4a31;fill-rule:evenodd"
                         inkscape:connector-curvature="0" />
                    <path
                         id="path4295"
                         d="M 807.79712,20.07359 813.86821,25.65903 H 811.92551 C 714.46677,37.64103 651.80779,44.19785 623.96313,45.32951 605.02605,45.97548 560.17736,44.60098 489.42677,41.20114 413.17816,37.47589 367.11524,35.6157 351.25258,35.6157 330.85356,35.6157 270.94845,38.44728 171.54696,44.11529 72.140624,49.7833 16.368744,52.61488 4.2264743,52.61488 -4.6762457,52.61488 -24.429286,51.72606 -55.027816,49.94358 -85.626336,48.00081 -109.7506,47.02943 -127.39575,47.02943 L -117.68194,37.55846 C -87.408826,37.55846 -46.125096,39.41866 6.1692343,43.14391 17.340124,43.95501 33.450494,43.6296 54.495474,42.17252 92.865054,39.25838 125.4889,37.15534 152.36218,35.85854 218.57641,32.78412 268.68513,30.59851 302.68349,29.30172 H 409.53548 C 411.15283,29.30172 412.68761,29.30172 414.14469,29.30172 418.35563,29.94769 423.8585,30.51594 430.65818,31.00163 L 445.2289,31.48733 C 509.98606,33.26981 565.19454,35.29028 610.84948,37.55846 643.88132,39.34095 692.12013,36.01882 755.59021,27.6018 L 807.79712,20.07359 z"
                         style="fill:#6d4a31;fill-rule:evenodd"
                         inkscape:connector-curvature="0" />
                    <path
                         id="path4293"
                         d="M 879.67941,85.15616 C 832.40711,91.63042 795.8977,94.86998 770.15608,94.86998 753.64259,94.86998 669.37523,91.38758 517.34914,84.42763 365.3279,77.30254 273.78003,73.74243 242.69096,73.74243 210.30995,73.74243 165.38355,76.33116 107.91175,81.51348 50.439954,86.37039 16.524164,88.79884 6.1595243,88.79884 -13.593526,88.79884 -70.176506,86.04498 -163.58944,80.5421 L -155.33269,72.77105 -66.936956,75.92804 C -19.499526,78.84218 11.827534,79.97384 27.044224,79.32787 32.226544,79.00732 35.140694,77.79309 35.786664,75.68519 36.107214,74.71381 37.243734,73.98527 39.186494,73.49958 42.586334,72.85361 46.068734,72.28536 49.628854,71.79967 50.114544,71.63939 50.682804,71.55682 51.328774,71.55682 51.654184,71.55682 51.974734,71.55682 52.300154,71.55682 76.259284,70.42516 104.99761,68.96323 138.51027,67.1856 209.58141,63.62549 256.61086,62.89695 279.60347,64.99999 314.41293,68.23955 390.02042,72.20279 506.42109,76.89942 630.11198,82.08174 712.59686,84.26735 753.88058,83.45625 790.30739,82.48486 828.26901,79.57072 867.77511,74.71381 L 879.67941,85.15616 z"
                         style="fill:#6d4a31;fill-rule:evenodd"
                         inkscape:connector-curvature="0" />
                    <path
                         id="path4291"
                         d="M 850.78081,59.90024 819.93941,60.87162 C 649.62218,67.34588 544.55268,69.8569 504.72603,68.39983 488.69823,67.58873 460.77101,65.40312 420.94436,61.843 387.7571,58.60344 357.72198,56.98609 330.84871,56.98609 317.40964,56.98609 269.97222,58.28289 188.54129,60.87162 120.70485,62.97466 72.300904,63.38264 43.319724,62.08585 21.463644,60.95419 -9.7808557,61.11447 -50.418606,62.57154 -113.88383,65.16027 -146.50769,66.45706 -148.28532,66.45706 L -143.42841,61.843 C -124.32133,61.35731 -87.170836,60.06052 -31.962356,57.95748 16.932144,56.34012 48.094064,56.01471 61.533134,56.98609 76.589554,58.44317 114.556,58.03519 175.42763,55.77187 256.37773,52.85772 310.93538,51.23551 339.10545,50.91496 385.08095,50.42927 417.86508,50.67211 437.45785,51.64349 450.40637,52.12918 471.77676,53.50369 501.56418,55.77187 529.89939,57.55435 585.10301,58.11775 667.18962,57.47178 742.31142,56.98609 795.8977,56.01471 827.95331,54.55764 L 843.98111,53.8291 H 846.16671 L 852.96641,59.65739 850.78081,59.90024 z"
                         style="fill:#6d4a31;fill-rule:evenodd"
                         inkscape:connector-curvature="0" />
                    <path
                         id="path4289"
                         d="M 830.86741,42.41537 C 820.66311,42.73593 814.35391,43.06134 811.92551,43.38675 807.87969,43.87244 790.38996,44.03272 759.47088,43.87244 L 718.67285,43.38675 C 720.78075,43.38675 730.81512,42.41537 748.78568,40.47261 768.69901,38.20929 783.99827,36.18396 794.68347,34.40147 L 817.99661,31.00163 819.93941,30.75879 833.04821,42.17252 830.86741,42.41537 z"
                         style="fill:#6d4a31;fill-rule:evenodd"
                         inkscape:connector-curvature="0" />
                    <path
                         id="path208"
                         d="M -35.605036,20.80213 C -14.074356,19.50533 2.3614143,19.34505 13.692584,20.31644 25.023754,21.4481 29.074414,23.23058 25.834854,25.65903 L 17.578114,29.30172 C 18.549494,29.94769 18.549494,30.43338 17.578114,30.75879 15.795624,31.73017 10.127614,31.65246 0.57893429,30.51594 L -64.260796,22.74489 -35.605036,20.80213 z"
                         style="fill:#6d4a31;fill-rule:evenodd"
                         inkscape:connector-curvature="0" />
                </g>
            </g>
        </g>
    </g>
</svg>
